<svg width="1512" height="712" viewBox="0 0 1512 712" fill="none" xmlns="http://www.w3.org/2000/svg">
<path d="M-139 18.2175C112.194 115.557 247.596 243.936 325.687 348.959C390.784 436.517 389.629 472.334 458.753 537.659C608.757 679.412 896.107 777.165 1035.37 655.347C1103.97 595.339 1078.6 519.294 1111.41 375.334C1140.93 245.833 1217.26 67.7225 1430.35 -125.846" stroke="#D8E710" stroke-opacity="0.1" stroke-miterlimit="10"/>
<path d="M-138.498 49.6228C105.83 133.278 239.878 254.052 317.928 352.339C383.6 435.064 388.94 468.144 462.362 532.346C616.383 667.03 886.242 760.797 1025.7 647.133C1097.54 588.591 1081.2 513.846 1119.65 370.309C1153.5 243.94 1231.38 68.8757 1440.8 -122.957" stroke="#D8E710" stroke-opacity="0.1" stroke-miterlimit="10"/>
<path d="M-137.996 81.0234C99.4609 151 232.259 264.198 310.183 355.72C376.566 433.689 388.133 463.958 465.984 527.034C623.683 654.804 876.807 744.646 1016.05 638.923C1091.28 581.804 1083.69 508.473 1127.9 365.288C1165.94 242.082 1245.52 70.0416 1451.27 -120.047" stroke="#D8E710" stroke-opacity="0.1" stroke-miterlimit="10"/>
<path d="M-137.492 112.428C93.0941 168.725 224.774 274.375 302.439 359.127C369.619 432.397 387.197 459.803 469.627 521.717C630.691 642.751 867.781 728.739 1006.42 630.708C1085.19 575.016 1086.08 503.16 1136.16 360.262C1178.22 240.25 1259.67 71.2076 1461.74 -117.149" stroke="#D8E710" stroke-opacity="0.1" stroke-miterlimit="10"/>
<path d="M-136.988 143.829C86.75 186.438 217.442 284.552 294.695 362.486C362.791 431.174 386.183 455.687 473.224 516.404C637.373 630.878 859.082 713.093 996.74 622.493C1079.22 568.215 1088.29 497.883 1144.39 355.237C1190.33 238.427 1273.79 72.3693 1472.17 -114.229" stroke="#D8E710" stroke-opacity="0.1" stroke-miterlimit="10"/>
<path d="M-136.486 175.23C80.3632 204.159 210.276 294.733 286.95 365.866C356.105 430.025 385.005 451.632 476.846 511.088C643.83 619.2 850.739 697.712 987.083 614.283C1073.41 561.454 1090.35 492.631 1152.64 350.212C1202.31 236.6 1287.93 73.5353 1482.64 -111.354" stroke="#D8E710" stroke-opacity="0.1" stroke-miterlimit="10"/>
<path d="M-135.984 206.631C73.9945 221.859 203.31 304.87 279.204 369.247C349.573 428.938 383.75 447.647 480.465 505.775C650.08 607.713 842.694 682.61 977.426 606.069C1067.75 554.754 1092.31 487.379 1160.88 345.191C1214.14 234.755 1302.08 74.7014 1493.09 -108.451" stroke="#D8E710" stroke-opacity="0.1" stroke-miterlimit="10"/>
<path d="M-135.463 238.036C67.6453 239.598 196.58 314.96 271.478 372.628C343.242 427.885 382.441 443.748 484.102 500.463C656.163 596.423 834.941 667.782 967.789 597.854C1062.25 548.136 1094.12 482.119 1169.15 340.165C1225.83 232.889 1316.2 75.8805 1503.56 -105.554" stroke="#D8E710" stroke-opacity="0.1" stroke-miterlimit="10"/>
<path d="M-134.979 269.436C61.259 257.319 190.049 324.954 263.715 376.013C337.087 426.849 380.983 439.971 487.707 495.146C662.078 585.323 827.39 653.233 958.114 589.644C1056.85 541.627 1095.74 476.815 1177.38 335.14C1237.4 230.983 1330.33 77.0291 1514.04 -102.656" stroke="#D8E710" stroke-opacity="0.1" stroke-miterlimit="10"/>
<path d="M-134.477 300.824C54.8948 275.027 183.775 334.805 255.969 379.38C331.121 425.779 379.487 436.238 491.325 489.82C667.861 574.394 820.03 638.936 948.458 581.416C1051.56 535.24 1097.23 471.446 1185.62 330.102C1248.84 229.016 1344.47 78.1822 1524.48 -99.7712" stroke="#D8E710" stroke-opacity="0.1" stroke-miterlimit="10"/>
<path d="M-133.973 332.242C48.5507 292.762 177.748 344.516 248.23 382.774C325.397 424.665 377.94 432.666 494.949 484.516C673.569 563.669 812.843 624.93 938.803 573.219C1046.4 529.044 1098.58 466.029 1193.87 325.089C1260.18 227.023 1358.61 79.3613 1534.94 -96.8518" stroke="#D8E710" stroke-opacity="0.1" stroke-miterlimit="10"/>
<path d="M-133.469 363.643C42.1613 310.479 171.952 354.006 240.487 386.155C319.891 423.407 376.36 429.203 498.569 479.204C679.209 553.1 805.788 611.159 929.148 565.004C1041.34 523.031 1099.79 460.512 1202.12 320.068C1271.42 224.957 1372.74 80.5229 1545.4 -93.9585" stroke="#D8E710" stroke-opacity="0.1" stroke-miterlimit="10"/>
<path d="M-132.967 395.048C35.7926 328.2 166.353 363.251 232.741 389.54C314.591 421.95 374.702 425.857 502.192 473.891C684.801 542.693 798.822 597.632 919.495 556.79C1036.35 517.24 1100.87 454.895 1210.37 315.043C1282.57 222.825 1386.88 81.6889 1555.86 -91.0608" stroke="#D8E710" stroke-opacity="0.1" stroke-miterlimit="10"/>
<path d="M-132.465 426.449C29.4284 345.922 160.922 372.227 224.996 392.92C309.477 420.205 373.034 422.637 505.801 468.575C690.353 532.429 791.91 584.31 909.83 548.58C1031.45 511.706 1101.81 449.156 1218.61 310.018C1293.66 220.619 1401.01 82.842 1566.32 -88.1499" stroke="#D8E710" stroke-opacity="0.1" stroke-miterlimit="10"/>
<path d="M-131.963 457.849C23.0597 363.639 155.6 380.912 217.232 396.301C304.481 418.082 371.331 419.539 509.414 463.262C695.901 522.309 785.025 571.244 900.164 540.365C1026.59 506.458 1102.64 443.291 1226.84 304.979C1304.66 218.326 1415.13 84.0037 1576.76 -85.2783" stroke="#D8E710" stroke-opacity="0.1" stroke-miterlimit="10"/>
<path d="M-131.459 489.254C16.7156 381.36 150.324 389.3 209.506 399.682C299.591 415.484 369.651 416.568 513.052 457.945C701.464 512.332 778.169 558.36 890.527 532.155C1021.8 501.528 1103.4 437.304 1235.11 299.971C1315.67 215.981 1429.29 85.1827 1587.24 -82.3633" stroke="#D8E710" stroke-opacity="0.1" stroke-miterlimit="10"/>
<path d="M-130.934 520.655C10.3476 399.081 145.659 413.135 201.784 403.067C293.585 386.594 367.976 413.722 516.698 452.633C707.057 502.447 771.266 545.669 880.871 523.94C1017.01 496.964 1104.04 431.139 1243.36 294.946C1326.61 213.557 1443.42 86.3489 1597.7 -79.448" stroke="#D8E710" stroke-opacity="0.1" stroke-miterlimit="10"/>
<path d="M-130.453 552.056C3.96197 416.803 140.886 418.226 194.017 406.448C287.14 385.807 366.255 410.994 520.295 447.32C712.669 492.701 764.283 533.164 871.215 515.726C1012.21 492.761 1104.61 424.843 1251.61 289.912C1337.53 211.042 1457.56 87.5019 1608.16 -76.5764" stroke="#D8E710" stroke-opacity="0.1" stroke-miterlimit="10"/>
<path d="M-129.951 583.461C-2.40676 434.52 135.487 422.816 186.272 409.828C281.071 385.589 364.565 408.388 523.917 442.025C718.311 483.037 757.212 520.803 861.558 507.537C1007.36 488.998 1105.12 418.413 1259.85 284.917C1348.44 208.493 1471.7 88.6897 1618.62 -73.6482" stroke="#D8E710" stroke-opacity="0.1" stroke-miterlimit="10"/>
<path d="M-129.447 614.862C-8.77353 452.241 127.829 420.375 178.533 413.209C278.404 399.125 362.904 405.891 527.542 436.704C724.015 473.456 750.021 508.568 851.908 499.314C1002.45 485.626 1105.57 411.773 1268.11 279.87C1359.35 205.817 1485.84 89.8427 1629.08 -70.7722" stroke="#D8E710" stroke-opacity="0.1" stroke-miterlimit="10"/>
<path d="M-128.945 646.263C-15.1422 469.962 121.515 427.763 170.783 416.594C272.076 393.634 361.25 403.506 531.155 431.387C729.752 463.963 742.665 496.468 842.247 491.099C997.419 482.737 1105.99 405.038 1276.35 274.858C1370.26 203.098 1499.97 91.0174 1639.54 -67.8616" stroke="#D8E710" stroke-opacity="0.1" stroke-miterlimit="10"/>
<path d="M-128.443 677.668C-21.5064 487.684 114.77 435.159 163.037 419.975C265.168 387.83 359.628 401.226 534.778 426.066C735.558 454.538 735.137 484.464 832.594 482.88C992.245 480.27 1106.37 398.12 1284.6 269.828C1381.17 200.317 1514.1 92.1705 1650 -64.9724" stroke="#D8E710" stroke-opacity="0.1" stroke-miterlimit="10"/>
</svg>
