<svg width="154" height="8" viewBox="0 0 154 8" fill="none" xmlns="http://www.w3.org/2000/svg">
<path id="Vector" fill-rule="evenodd" clip-rule="evenodd" d="M43.9394 0.14155C20.2666 1.00631 2.58057 3.00189 0.584964 4.99749C-0.379577 5.92877 0.0195716 6.86005 1.54953 7.49199C2.9132 8.02415 23.3931 7.92438 38.9879 7.29244C63.6585 6.29464 87.6307 5.99532 109.641 6.4277C120.945 6.66052 132.016 6.95988 134.211 7.12618C140.194 7.59182 152.097 7.92438 153.095 7.6583C154.458 7.3257 154.159 6.86008 152.263 6.32792C146.414 4.66492 125.397 3.7669 92.8151 3.73364C68.344 3.73364 65.6499 3.76691 40.6134 4.63168C23.7548 5.23036 13.0159 5.36335 13.3818 4.99749C13.6811 4.69815 28.5774 3.6006 43.6027 2.80236C47.1615 2.6028 52.3459 2.30347 55.0733 2.13717C57.8338 1.97087 62.9517 1.63825 66.4773 1.43869C72.6595 1.03957 74.1894 0.740223 71.6325 0.341102C69.2378 0.00850165 51.4188 -0.12453 43.9353 0.14155H43.9394Z" fill="#D8E710"/>
</svg>
