<svg width="21" height="21" viewBox="0 0 21 21" fill="none" xmlns="http://www.w3.org/2000/svg">
<g id="game-icons:ninja-star">
<path id="Vector" d="M11.3337 13.6102C10.5708 13.8251 9.73839 13.7643 9.00056 13.4054C8.66617 14.0213 8.50089 14.8081 8.39552 15.6525L1.01758 19.4908C2.69671 14.5829 4.85586 12.2755 7.26764 11.3345C7.05241 10.5722 7.11431 9.73973 7.47252 9.00162C6.85622 8.66764 6.06983 8.50264 5.22475 8.39633L1.38708 1.01831C6.29468 2.6981 8.60178 4.85688 9.54244 7.2687C10.305 7.05379 11.1375 7.11565 11.8756 7.47292C12.2106 6.85756 12.3753 6.07117 12.4809 5.22549L19.8596 1.38749C18.1797 6.29611 16.0203 8.60341 13.6085 9.54419C13.8234 10.3068 13.7625 11.1392 13.4039 11.8773C14.0202 12.2123 14.8067 12.3763 15.6514 12.482L19.4903 19.8606C14.5808 18.1802 12.2744 16.022 11.3336 13.6102L11.3337 13.6102ZM10.6543 12.1202C11.5821 12.0013 12.238 11.1515 12.1192 10.2236C11.9999 9.29511 11.1511 8.64011 10.2222 8.7587C9.29471 8.87761 8.63877 9.72652 8.75797 10.6547C8.87655 11.5828 9.72578 12.2388 10.6542 12.1203L10.6543 12.1202Z" fill="#D8E710"/>
</g>
</svg>
