<svg width="1312" height="535" viewBox="0 0 1312 535" fill="none" xmlns="http://www.w3.org/2000/svg">
<mask id="mask0_513_48" style="mask-type:alpha" maskUnits="userSpaceOnUse" x="0" y="0" width="1312" height="535">
<rect x="0.13501" y="0.130859" width="1311.73" height="534.869" rx="11.308" fill="black"/>
</mask>
<g mask="url(#mask0_513_48)">
<path d="M-95.1936 576.306C-97.2453 571.492 -94.9693 564.678 -90.1532 561.153L231.401 326.371C236.217 322.846 241.825 323.92 243.877 328.734C245.929 333.548 243.653 340.363 238.837 343.887L-82.7174 578.67C-87.5335 582.194 -93.1492 581.133 -95.1936 576.306Z" fill="url(#paint0_linear_513_48)" fill-opacity="0.5"/>
<path d="M-49.0002 611.447C-51.0519 606.633 -48.7759 599.818 -43.9598 596.294L277.594 361.511C282.41 357.987 288.019 359.06 290.071 363.875C292.122 368.689 289.846 375.503 285.03 379.028L-36.524 613.811C-41.3401 617.335 -46.9559 616.274 -49.0002 611.447Z" fill="url(#paint1_linear_513_48)"/>
<path d="M1411.07 -39.1196C1413.12 -34.3054 1410.84 -27.491 1406.03 -23.9664L1084.47 210.816C1079.66 214.341 1074.05 213.267 1072 208.453C1069.94 203.638 1072.22 196.824 1077.04 193.299L1398.59 -41.4832C1403.41 -45.0077 1409.02 -43.9467 1411.07 -39.1196Z" fill="url(#paint2_linear_513_48)" fill-opacity="0.5"/>
<path d="M1364.87 -74.2603C1366.93 -69.446 1364.65 -62.6316 1359.83 -59.1071L1038.28 175.676C1033.46 179.2 1027.85 178.126 1025.8 173.312C1023.75 168.498 1026.03 161.683 1030.84 158.159L1352.4 -76.6238C1357.21 -80.1483 1362.83 -79.0873 1364.87 -74.2603Z" fill="url(#paint3_linear_513_48)"/>
<path d="M-430.623 572.589C-125.284 467.769 39.3051 329.524 134.229 216.43C213.358 122.142 211.954 83.5729 295.977 13.2275C478.315 -139.42 827.603 -244.685 996.888 -113.506C1080.28 -48.8857 1049.43 33.0042 1089.32 188.027C1125.2 327.481 1217.98 519.279 1477 727.725" stroke="#D8E710" stroke-opacity="0.05" stroke-width="1.21555" stroke-miterlimit="10"/>
<path d="M-430.012 538.77C-133.019 448.686 29.9236 318.631 124.798 212.789C204.626 123.707 211.117 88.0849 300.364 18.9483C487.586 -126.086 815.612 -227.059 985.134 -104.66C1072.45 -41.6187 1052.59 38.8703 1099.33 193.439C1140.47 329.519 1235.14 518.038 1489.7 724.614" stroke="#D8E710" stroke-opacity="0.05" stroke-width="1.21555" stroke-miterlimit="10"/>
<path d="M-429.401 504.956C-140.76 429.602 20.663 307.704 115.383 209.149C196.075 125.188 210.136 92.592 304.768 24.669C496.46 -112.92 804.144 -209.667 973.407 -95.8186C1064.85 -34.3098 1055.62 44.6566 1109.36 198.846C1155.6 331.52 1252.33 516.782 1502.44 721.479" stroke="#D8E710" stroke-opacity="0.05" stroke-width="1.21555" stroke-miterlimit="10"/>
<path d="M-428.791 471.138C-148.501 410.514 11.5625 296.746 105.969 205.48C187.63 126.579 208.996 97.0666 309.194 30.3945C504.976 -99.9417 793.172 -192.538 961.691 -86.9727C1057.44 -27.0006 1058.52 50.3774 1119.4 204.257C1170.53 333.492 1269.54 515.526 1515.16 718.359" stroke="#D8E710" stroke-opacity="0.05" stroke-width="1.21555" stroke-miterlimit="10"/>
<path d="M-428.178 437.324C-156.212 391.441 2.65103 285.787 96.5562 201.863C179.33 127.896 207.765 101.499 313.567 36.1154C513.098 -87.1553 782.598 -175.689 949.928 -78.1268C1050.18 -19.6774 1061.21 56.0608 1129.4 209.669C1185.25 335.456 1286.7 514.276 1527.84 715.215" stroke="#D8E710" stroke-opacity="0.05" stroke-width="1.21555" stroke-miterlimit="10"/>
<path d="M-427.567 403.51C-163.975 372.357 -6.05888 274.823 87.1416 198.223C171.203 129.133 206.333 105.866 317.971 41.8408C520.949 -74.58 772.456 -159.127 938.19 -69.2855C1043.13 -12.3964 1063.71 61.7159 1139.43 215.08C1199.81 337.423 1303.88 513.02 1540.56 712.118" stroke="#D8E710" stroke-opacity="0.05" stroke-width="1.21555" stroke-miterlimit="10"/>
<path d="M-426.956 369.696C-171.716 353.297 -14.5266 263.906 77.727 194.582C163.264 130.304 204.808 110.157 322.369 47.5616C528.546 -62.2107 762.678 -142.864 926.452 -60.4396C1036.25 -5.181 1066.1 67.3712 1149.45 220.487C1214.19 339.41 1321.08 511.764 1553.27 708.993" stroke="#D8E710" stroke-opacity="0.05" stroke-width="1.21555" stroke-miterlimit="10"/>
<path d="M-426.324 335.877C-179.436 334.195 -22.7085 253.041 68.3339 190.941C155.567 131.438 203.216 114.355 326.789 53.2821C535.938 -50.0526 753.252 -126.897 914.736 -51.5941C1029.56 1.94507 1068.3 73.0354 1159.5 225.899C1228.4 341.42 1338.24 510.494 1565.99 705.872" stroke="#D8E710" stroke-opacity="0.05" stroke-width="1.21555" stroke-miterlimit="10"/>
<path d="M-425.734 302.063C-187.197 315.112 -30.6466 242.279 58.8983 187.296C148.085 132.553 201.444 118.422 331.172 59.0076C543.129 -38.1003 744.075 -111.229 902.977 -42.7528C1022.99 8.95434 1070.27 78.7469 1169.5 231.31C1242.46 343.472 1355.43 509.257 1578.73 702.752" stroke="#D8E710" stroke-opacity="0.05" stroke-width="1.21555" stroke-miterlimit="10"/>
<path d="M-425.124 268.264C-194.933 296.043 -38.272 231.671 49.4837 183.67C140.834 133.706 199.626 122.442 335.571 64.7427C550.159 -26.3305 735.129 -95.8325 891.239 -33.8926C1016.57 15.8327 1072.09 84.5288 1179.53 236.736C1256.37 345.59 1372.61 508.016 1591.42 699.646" stroke="#D8E710" stroke-opacity="0.05" stroke-width="1.21555" stroke-miterlimit="10"/>
<path d="M-424.511 234.431C-202.644 276.945 -45.5981 221.213 40.0766 180.015C133.877 134.905 197.745 126.289 339.976 70.4539C557.098 -14.7814 726.393 -80.7507 879.503 -25.0657C1010.29 22.5043 1073.72 90.3618 1189.56 242.133C1270.15 347.736 1389.8 506.746 1604.14 696.501" stroke="#D8E710" stroke-opacity="0.05" stroke-width="1.21555" stroke-miterlimit="10"/>
<path d="M-423.9 200.617C-210.413 257.867 -52.6451 210.995 30.6622 176.375C127.182 136.259 195.824 130.018 344.375 76.1747C563.951 -3.40079 717.816 -65.9217 867.766 -16.2199C1004.14 28.9794 1075.19 96.3028 1199.58 247.54C1283.81 349.961 1406.98 505.495 1616.85 693.386" stroke="#D8E710" stroke-opacity="0.05" stroke-width="1.21555" stroke-miterlimit="10"/>
<path d="M-423.289 166.798C-218.154 238.783 -59.4502 201.038 21.2476 172.73C120.741 137.829 193.808 133.621 348.779 81.8955C570.75 7.80655 709.348 -51.355 856.033 -7.37389C998.072 35.2157 1076.5 102.352 1209.6 252.952C1297.37 352.257 1424.16 504.239 1629.57 690.265" stroke="#D8E710" stroke-opacity="0.05" stroke-width="1.21555" stroke-miterlimit="10"/>
<path d="M-422.679 132.984C-225.889 219.7 -66.0513 191.373 11.8332 169.089C114.525 139.708 191.782 137.089 353.167 87.6212C577.5 18.8594 700.947 -37.0083 844.285 1.46752C992.12 41.1756 1077.65 108.532 1219.62 258.364C1310.85 354.633 1441.34 502.998 1642.28 687.131" stroke="#D8E710" stroke-opacity="0.05" stroke-width="1.21555" stroke-miterlimit="10"/>
<path d="M-422.068 99.1703C-233.63 200.622 -72.5206 182.021 2.39653 165.449C108.452 141.994 189.711 140.425 357.559 93.3418C584.243 29.7574 692.578 -22.9384 832.536 10.3133C986.218 46.8259 1078.66 114.847 1229.63 263.789C1324.23 357.102 1458.51 501.747 1654.97 684.039" stroke="#D8E710" stroke-opacity="0.05" stroke-width="1.21555" stroke-miterlimit="10"/>
<path d="M-421.457 65.3517C-241.343 181.538 -78.9348 172.988 -6.99609 161.808C102.506 144.791 187.669 143.625 361.98 99.0672C591.003 40.5007 684.242 -9.06527 820.82 19.1544C980.393 52.1344 1079.57 121.294 1239.68 269.182C1337.6 359.627 1475.71 500.477 1667.71 680.899" stroke="#D8E710" stroke-opacity="0.05" stroke-width="1.21555" stroke-miterlimit="10"/>
<path d="M-420.819 31.5379C-249.084 162.455 -84.6054 147.321 -16.3828 158.163C95.2057 175.902 185.631 146.689 366.412 104.788C597.802 51.1459 675.852 4.60196 809.082 28.0004C974.568 57.0494 1080.36 127.934 1249.71 274.593C1350.9 362.237 1492.89 499.222 1680.42 677.76" stroke="#D8E710" stroke-opacity="0.05" stroke-width="1.21555" stroke-miterlimit="10"/>
<path d="M-420.234 -2.27625C-256.845 143.372 -90.4067 141.839 -25.8231 154.523C87.3729 176.75 183.541 149.627 370.784 110.509C604.625 61.6409 667.364 18.0674 797.346 36.8462C968.729 61.5753 1081.05 134.713 1259.73 280.014C1364.18 364.945 1510.08 497.98 1693.14 674.668" stroke="#D8E710" stroke-opacity="0.05" stroke-width="1.21555" stroke-miterlimit="10"/>
<path d="M-419.623 -36.0946C-264.586 124.293 -96.9694 136.897 -35.2376 150.882C79.9954 176.984 181.487 152.433 375.188 116.211C611.484 72.0472 658.77 31.3786 785.609 45.6642C962.843 65.6283 1081.67 141.638 1269.76 285.393C1377.44 367.691 1527.27 496.701 1705.85 671.515" stroke="#D8E710" stroke-opacity="0.05" stroke-width="1.21555" stroke-miterlimit="10"/>
<path d="M-419.012 -69.9088C-272.327 105.21 -106.279 139.525 -44.6464 147.242C76.7526 162.408 179.466 155.122 379.592 121.941C618.415 82.364 650.027 44.5535 773.876 54.5192C956.864 69.2592 1082.22 148.788 1279.79 290.828C1390.7 370.572 1544.46 495.459 1718.57 668.418" stroke="#D8E710" stroke-opacity="0.05" stroke-width="1.21555" stroke-miterlimit="10"/>
<path d="M-418.401 -103.723C-280.068 86.1263 -113.954 131.569 -54.0663 143.596C69.0615 168.321 177.457 157.69 383.986 127.666C625.391 92.5873 641.087 57.5833 762.133 63.365C950.753 72.3702 1082.73 156.041 1289.81 296.225C1403.96 373.5 1561.63 494.194 1731.28 665.283" stroke="#D8E710" stroke-opacity="0.05" stroke-width="1.21555" stroke-miterlimit="10"/>
<path d="M-417.79 -137.541C-287.803 67.0433 -122.152 123.604 -63.4807 139.956C60.6655 174.571 175.486 160.145 388.389 133.397C632.448 102.736 631.936 70.5104 750.401 72.2158C944.465 75.027 1083.2 163.491 1299.84 301.642C1417.23 376.494 1578.81 492.953 1744 662.172" stroke="#D8E710" stroke-opacity="0.05" stroke-width="1.21555" stroke-miterlimit="10"/>
</g>
<defs>
<linearGradient id="paint0_linear_513_48" x1="-86.7583" y1="571.208" x2="260.865" y2="421.341" gradientUnits="userSpaceOnUse">
<stop stop-color="#D8E710"/>
<stop offset="1" stop-color="#D8E710" stop-opacity="0"/>
</linearGradient>
<linearGradient id="paint1_linear_513_48" x1="-40.5654" y1="606.352" x2="307.058" y2="456.485" gradientUnits="userSpaceOnUse">
<stop stop-color="#D8E710"/>
<stop offset="1" stop-color="#D8E710" stop-opacity="0"/>
</linearGradient>
<linearGradient id="paint2_linear_513_48" x1="1402.63" y1="-34.0217" x2="1055.01" y2="115.846" gradientUnits="userSpaceOnUse">
<stop stop-color="#D8E710"/>
<stop offset="1" stop-color="#D8E710" stop-opacity="0"/>
</linearGradient>
<linearGradient id="paint3_linear_513_48" x1="1356.44" y1="-69.1657" x2="1008.82" y2="80.702" gradientUnits="userSpaceOnUse">
<stop stop-color="#D8E710"/>
<stop offset="1" stop-color="#D8E710" stop-opacity="0"/>
</linearGradient>
</defs>
</svg>
